<?xml version="1.0" standalone="no"?>
<!DOCTYPE svg PUBLIC "-//W3C//DTD SVG 20010904//EN"
 "http://www.w3.org/TR/2001/REC-SVG-20010904/DTD/svg10.dtd">
<svg version="1.0" xmlns="http://www.w3.org/2000/svg"
 width="553.000000pt" height="231.000000pt" viewBox="0 0 553.000000 231.000000"
 preserveAspectRatio="xMidYMid meet">
<metadata>
Created by potrace 1.16, written by Peter Selinger 2001-2019
</metadata>
<g transform="translate(0.000000,231.000000) scale(0.100000,-0.100000)"
fill="#000000" stroke="none">
<path d="M3270 2292 c-215 -60 -460 -191 -703 -374 -117 -88 -249 -199 -243
-205 2 -3 69 37 148 88 350 226 598 270 684 122 25 -42 29 -58 29 -131 l0 -82
184 2 184 3 33 60 c84 151 109 332 59 431 -14 28 -40 59 -61 74 -33 22 -49 25
-143 27 -78 2 -123 -2 -171 -15z"/>
<path d="M2891 1969 c-75 -15 -172 -50 -266 -96 -96 -48 -275 -162 -275 -175
0 -4 34 -8 75 -8 l74 0 80 64 c149 120 329 206 434 206 30 0 46 4 42 10 -7 12
-102 11 -164 -1z"/>
<path d="M190 1238 c-100 -216 -185 -401 -188 -411 -4 -16 2 -18 64 -15 l68 3
41 95 41 95 116 3 116 3 7 -68 c3 -37 8 -83 11 -100 l5 -33 156 0 155 0 -6 43
c-3 23 -21 191 -41 372 -19 182 -38 347 -41 368 l-6 37 -158 0 -157 0 -183
-392z m234 70 c4 -57 9 -124 13 -150 l6 -48 -88 0 c-50 0 -85 4 -83 9 17 50
134 298 139 295 3 -2 9 -50 13 -106z"/>
<path d="M1005 1618 c-8 -26 -165 -780 -165 -794 0 -12 43 -14 274 -14 l274 0
6 38 c4 20 9 45 12 55 5 16 -6 17 -125 17 -72 0 -131 2 -131 5 0 5 134 636
145 683 l5 22 -145 0 c-108 0 -147 -3 -150 -12z"/>
<path d="M1920 1538 c-24 -51 -110 -236 -191 -411 l-147 -318 71 3 71 3 41 95
41 95 116 3 116 3 7 -68 c3 -37 8 -83 11 -100 l5 -33 156 0 155 0 -6 43 c-3
23 -21 191 -41 372 -19 182 -38 347 -41 368 l-6 37 -157 0 -158 0 -43 -92z
m94 -230 c4 -57 9 -124 13 -150 l6 -48 -88 0 c-50 0 -85 4 -83 9 17 50 134
298 139 295 3 -2 9 -50 13 -106z"/>
<path d="M2536 1613 c-3 -10 -8 -35 -12 -55 l-6 -37 157 -3 157 -3 -205 -290
c-171 -243 -206 -299 -216 -343 -6 -29 -11 -57 -11 -62 0 -6 131 -10 339 -10
l339 0 6 31 c14 72 24 68 -158 71 l-164 3 208 302 c199 290 208 304 212 357
l5 56 -323 0 c-299 0 -323 -1 -328 -17z"/>
<path d="M3246 1613 c-3 -10 -8 -35 -12 -55 l-6 -37 157 -3 157 -3 -205 -290
c-171 -243 -206 -299 -216 -343 -6 -29 -11 -57 -11 -63 0 -6 153 -8 412 -7
l412 3 41 95 41 95 116 3 116 3 7 -68 c3 -37 8 -83 11 -100 l5 -33 156 0 155
0 -6 43 c-3 23 -21 191 -41 372 -19 182 -38 347 -41 368 l-6 37 -158 0 -157 0
-173 -372 c-95 -205 -181 -389 -191 -408 l-18 -35 6 47 6 48 -166 2 -165 3
208 302 c199 290 208 304 212 357 l5 56 -323 0 c-299 0 -323 -1 -328 -17z
m978 -305 c4 -57 9 -124 13 -150 l6 -48 -88 0 c-50 0 -85 4 -83 9 17 50 134
298 139 295 3 -2 9 -50 13 -106z"/>
<path d="M4805 1618 c-8 -26 -165 -780 -165 -794 0 -11 25 -14 143 -14 l142 0
33 158 c19 86 36 165 38 175 5 14 17 17 78 17 l73 0 -33 -151 c-18 -83 -35
-162 -38 -175 l-7 -25 147 3 147 3 83 385 c46 212 84 395 84 408 0 22 -1 22
-143 22 l-142 0 -23 -112 c-13 -62 -30 -143 -39 -180 l-15 -68 -69 0 c-54 0
-69 3 -69 15 0 12 46 238 65 323 l5 22 -145 0 c-108 0 -147 -3 -150 -12z"/>
<path d="M1901 440 c-192 -126 -398 -223 -555 -260 -87 -21 -218 -26 -260 -10
-37 14 -34 -8 7 -62 68 -89 132 -112 287 -106 124 6 229 37 405 122 173 83
538 314 585 371 11 13 -9 15 -176 14 l-189 -1 -104 -68z"/>
<path d="M1005 428 c-39 -133 4 -211 132 -238 28 -6 71 -10 95 -8 l43 3 -42
23 c-76 40 -101 106 -79 210 l13 62 -73 0 -73 0 -16 -52z"/>
</g>
</svg>
